<?xml version="1.0" encoding="UTF-8"?>
<svg version="1.1" xmlns="http://www.w3.org/2000/svg" width="784" height="1168" viewBox="0 0 784 1168">
<path d="M0 0 C258.72 0 517.44 0 784 0 C784 385.44 784 770.88 784 1168 C525.28 1168 266.56 1168 0 1168 C0 782.56 0 397.12 0 0 Z " fill="#6387A6" transform="translate(0,0)"/>
<path d="M0 0 C0.33 0 0.66 0 1 0 C1.33 296.34 1.66 592.68 2 898 C4.64 897.01 7.28 896.02 10 895 C15.96014528 895.10821493 21.74943029 898.05291179 27.25 900.1875 C35.48284317 903.33365798 43.72879901 906.34518749 52.11425781 909.05932617 C56.79683456 910.57678578 61.40159573 912.24474429 66 914 C67.2271875 914.46019531 68.454375 914.92039062 69.71875 915.39453125 C70.63877808 915.73955688 70.63877808 915.73955688 71.57739258 916.09155273 C72.91314085 916.59243713 74.24891765 917.09324545 75.5847168 917.59399414 C79.03236643 918.88651952 82.47963719 920.18002782 85.92578125 921.4765625 C89.23063722 922.71957427 92.53717304 923.95803253 95.84472656 925.19384766 C97.344523 925.75482725 98.84383675 926.3170983 100.34277344 926.88037109 C109.10878798 930.17158869 117.83494315 933.41443683 126.84765625 935.98046875 C129.44111744 936.81924616 131.90523636 937.74976101 134.42578125 938.77734375 C140.57503184 941.27276673 146.82839243 943.46270496 153.08853149 945.6600647 C171.25536155 952.03782507 171.25536155 952.03782507 179.8125 955.3125 C185.85261319 957.61036915 191.94703441 959.66963061 198.08569336 961.68310547 C204.35001281 963.75091309 210.53599961 966.00032958 216.71362305 968.31298828 C220.99381729 969.91016143 225.28553377 971.4542324 229.609375 972.9296875 C230.99116943 973.40257202 230.99116943 973.40257202 232.40087891 973.88500977 C234.18750136 974.49330684 235.97619042 975.09557469 237.76708984 975.69116211 C238.56840332 975.96452393 239.3697168 976.23788574 240.1953125 976.51953125 C241.26289795 976.87688354 241.26289795 976.87688354 242.35205078 977.24145508 C244 978 244 978 245 980 C244.14619751 980.2945105 244.14619751 980.2945105 243.27514648 980.5949707 C240.66167031 981.49815537 238.04958428 982.40529812 235.4375 983.3125 C234.54224609 983.62123047 233.64699219 983.92996094 232.72460938 984.24804688 C228.76632364 985.62547231 224.86206687 987.01787339 221.03515625 988.73046875 C218 990 218 990 215 990 C214.96848708 997.60660869 214.974632 1005.21240312 215.02846622 1012.81887341 C215.05229171 1016.35130697 215.0632859 1019.88279808 215.04467773 1023.4152832 C215.02383686 1027.47944207 215.05930459 1031.54143427 215.09765625 1035.60546875 C215.07627342 1037.50258858 215.07627342 1037.50258858 215.05445862 1039.43803406 C214.93026456 1045.57660475 214.93026456 1045.57660475 217.55026245 1050.84414673 C219.37881412 1052.1976949 219.37881412 1052.1976949 221.31126404 1053.11470032 C224.33522272 1054.69997458 224.99068685 1056.85331783 226 1060 C226.90881896 1066.86158314 226.07962901 1071.40508021 222 1077 C221.01 1077.66 220.02 1078.32 219 1079 C220.58655168 1083.93593856 222.29804078 1088.7720039 224.20556641 1093.59423828 C227.47098086 1101.94141636 229.56710669 1110.12744872 231 1119 C231.20496094 1120.17433594 231.40992188 1121.34867188 231.62109375 1122.55859375 C232.98017677 1130.96616251 233 1138.2931236 233 1147 C217.49 1147 201.98 1147 186 1147 C187.01900065 1128.65798837 189.11303556 1113.02788639 195 1096 C195.268125 1095.22398438 195.53625 1094.44796875 195.8125 1093.6484375 C197.51190447 1088.75478204 199.24468662 1083.87385984 201 1079 C200.34 1079 199.68 1079 199 1079 C193.85237117 1073.35016348 192.58112286 1069.48873066 192.65234375 1061.796875 C193.17606067 1057.58360179 194.88299042 1054.83224574 198 1052 C199.26604317 1051.37692207 199.26604317 1051.37692207 200.55766296 1050.74125671 C203.2103453 1049.24190513 203.2103453 1049.24190513 203.63923645 1046.58918762 C203.64589828 1045.63654526 203.65256012 1044.68390289 203.65942383 1043.70239258 C203.68888847 1042.08105156 203.68888847 1042.08105156 203.71894836 1040.42695618 C203.71501572 1039.26125595 203.71108307 1038.09555573 203.70703125 1036.89453125 C203.72971321 1035.10301888 203.72971321 1035.10301888 203.75285339 1033.27531433 C203.79590004 1029.4541867 203.80458533 1025.63384645 203.8125 1021.8125 C203.83563091 1019.22458819 203.86099328 1016.63669529 203.88867188 1014.04882812 C203.95169208 1007.69921143 203.98649149 1001.34990454 204 995 C180.64523521 1003.24661283 157.29353997 1011.4992259 134.0072937 1019.93771362 C125.78955124 1022.91540338 117.56840778 1025.87929954 109.3125 1028.75 C92.20143929 1034.70159499 75.18939765 1040.92050024 58.1960144 1047.1986084 C34.21616191 1056.05434147 34.21616191 1056.05434147 25.0625 1059.3125 C24.31379639 1059.58400879 23.56509277 1059.85551758 22.79370117 1060.13525391 C12.53268416 1063.74227415 12.53268416 1063.74227415 7.34765625 1062.22265625 C5.23177083 1061.1484375 3.11588542 1060.07421875 1 1059 C1 1064.94 1 1070.88 1 1077 C2.98 1077.33 4.96 1077.66 7 1078 C7.94230469 1078.4125 8.88460938 1078.825 9.85546875 1079.25 C14.38454541 1080.33022698 17.15816493 1078.83131159 21.3125 1077 C22.93524289 1076.32711928 24.55896374 1075.65659276 26.18359375 1074.98828125 C27.40344971 1074.479021 27.40344971 1074.479021 28.64794922 1073.95947266 C32.01808682 1072.58469159 35.43503425 1071.37434376 38.875 1070.1875 C40.26970646 1069.70232628 41.66422728 1069.21661871 43.05859375 1068.73046875 C43.82284668 1068.46411621 44.58709961 1068.19776367 45.37451172 1067.92333984 C48.47451118 1066.83312244 51.56748164 1065.72410707 54.66015625 1064.61328125 C75.99455927 1056.95106788 75.99455927 1056.95106788 86 1053.6875 C91.6438464 1051.84252957 97.11164169 1049.76462422 102.5625 1047.41015625 C108.18252768 1045.10466762 113.90608542 1043.08535168 119.62133789 1041.02978516 C124.05081019 1039.43610054 128.47371505 1037.83286484 132.87109375 1036.15234375 C133.60553711 1035.87189209 134.33998047 1035.59144043 135.09667969 1035.30249023 C136.45438722 1034.7813804 137.81060744 1034.25637268 139.16503906 1033.72680664 C141.95015631 1032.6597277 143.98480307 1032 147 1032 C147 1064.67 147 1097.34 147 1131 C138.09 1132.32 129.18 1133.64 120 1135 C114.8828631 1136.36690643 109.97216487 1137.69573384 104.98144531 1139.35888672 C102.15615894 1140.27303187 99.30073336 1141.06967167 96.44335938 1141.87670898 C79.94085589 1146.56625611 64.69118311 1153.63687824 49.375 1161.25 C48.38052856 1161.74367065 48.38052856 1161.74367065 47.3659668 1162.24731445 C43.80058387 1164.0361744 40.42949777 1165.94230134 37 1168 C24.79 1168 12.58 1168 0 1168 C0 782.56 0 397.12 0 0 Z " fill="#86A1BA" transform="translate(0,0)"/>
<path d="M0 0 C0.33 0 0.66 0 1 0 C1 385.44 1 770.88 1 1168 C0.67 1168 0.34 1168 0 1168 C0 889.15 0 610.3 0 323 C-2.97 324.98 -5.94 326.96 -9 329 C-9.4125 327.91203125 -9.825 326.8240625 -10.25 325.703125 C-15.65021628 311.81572206 -22.64431296 300.80205286 -33 290 C-33.68578125 289.25105469 -34.3715625 288.50210937 -35.078125 287.73046875 C-45.06822246 277.16686569 -57.38350895 269.97693566 -70 263 C-70.81210937 262.48953125 -71.62421875 261.9790625 -72.4609375 261.453125 C-78.23241985 258.15006125 -84.73832756 256.18411997 -91 254 C-92.1125415 253.60627197 -92.1125415 253.60627197 -93.24755859 253.20458984 C-108.49806633 247.90621418 -122.62402809 246.33942456 -139 244 C-139 223.54 -139 203.08 -139 182 C-132.25103956 183.12482674 -132.25103956 183.12482674 -129.11621094 184.3034668 C-128.06285553 184.69474007 -128.06285553 184.69474007 -126.98822021 185.09391785 C-125.87256683 185.51729179 -125.87256683 185.51729179 -124.734375 185.94921875 C-123.9421051 186.24431839 -123.14983521 186.53941803 -122.33355713 186.84346008 C-119.80376858 187.78638662 -117.2767094 188.73635642 -114.75 189.6875 C-111.45460608 190.92456706 -108.15782441 192.15782147 -104.859375 193.38671875 C-103.63808395 193.84201965 -103.63808395 193.84201965 -102.39212036 194.30651855 C-95.96009855 196.68601876 -89.48013859 198.89550178 -82.95574951 201.00798035 C-77.7769723 202.69354431 -72.78899529 204.68905713 -67.7890625 206.8515625 C-63.92911206 208.44095386 -59.97871268 209.68440988 -56.0078125 210.96484375 C-52.89646575 212.03563192 -49.89916161 213.2669832 -46.875 214.5625 C-43.28161121 216.09785703 -39.75975673 217.43693779 -36 218.5 C-29.30991984 220.39301304 -23.00682901 223.26481124 -16.63671875 226.0234375 C-12.62339567 227.6710918 -10.15755885 228.31291332 -6 227 C-4.02 226.67 -2.04 226.34 0 226 C0 220.39 0 214.78 0 209 C-2.97 209.99 -2.97 209.99 -6 211 C-12.1070631 211.22647928 -17.52860987 209.29892779 -23.0625 206.9375 C-30.24567714 204.00295592 -37.4946552 201.45585469 -44.875 199.0625 C-55.02814363 195.74786113 -64.90002658 191.94615655 -74.78027344 187.90087891 C-82.78489193 184.6521941 -90.89891829 181.7098717 -99.0703125 178.91015625 C-100.17036621 178.5330249 -101.27041992 178.15589355 -102.40380859 177.76733398 C-104.5377345 177.03884724 -106.6733193 176.31518948 -108.81103516 175.59790039 C-119.06896699 172.10640374 -128.88271015 168.04691594 -139 164 C-139 122.42 -139 80.84 -139 38 C-118.73710317 38 -118.73710317 38 -110.3125 39.375 C-109.28286133 39.5414502 -108.25322266 39.70790039 -107.19238281 39.87939453 C-89.95787705 42.97401644 -72.51193881 48.85205404 -57.02636719 56.96533203 C-51.00913717 59.02252958 -45.29966106 56.60215718 -39.5 54.625 C-38.2521875 54.20476563 -37.004375 53.78453125 -35.71875 53.3515625 C-32.0787105 52.02860697 -28.55203016 50.541524 -25 49 C-15.33452428 45.15875288 -9.84976273 44.06009491 0 48 C0 32.16 0 16.32 0 0 Z " fill="#86A1BB" transform="translate(783,0)"/>
<path d="M0 0 C15.38119973 0 15.38119973 0 22.5625 1.125 C23.40329102 1.25551758 24.24408203 1.38603516 25.11035156 1.52050781 C38.59825144 3.78102169 51.62612341 7.83597352 63.88964844 13.90332031 C67.78037023 15.76645354 69.8980023 16.36528259 74 15 C74.63607178 14.80446533 75.27214355 14.60893066 75.92749023 14.4074707 C78.21284286 13.69836442 80.48126708 12.94803583 82.75 12.1875 C83.55405273 11.92122803 84.35810547 11.65495605 85.18652344 11.38061523 C89.33496452 9.98419779 93.31243142 8.49082982 97.25 6.5625 C100.94785474 4.85304684 103.01280603 4.69805911 107 6 C108.45428686 6.58900467 109.90578317 7.18491591 111.35546875 7.78515625 C118.72192726 10.74885074 126.28438542 13.11474483 133.8359375 15.55664062 C140.31250159 17.67992328 146.58887651 20.03258839 152.85595703 22.70776367 C158.89735324 25.19084413 165.08420407 27.28715395 171.25 29.4375 C173.86016196 30.35063349 176.46951074 31.26604826 179.078125 32.18359375 C180.05393272 32.52667068 180.05393272 32.52667068 181.04945374 32.87667847 C185.72553341 34.5290455 190.37264291 36.25060115 195.01171875 38.00390625 C202.14399163 40.69862824 209.3161107 43.26367324 216.51223755 45.78225708 C232.06104093 51.22548389 247.56976509 56.77807791 263.06665039 62.3671875 C263.86276733 62.65387802 264.65888428 62.94056854 265.47912598 63.23594666 C266.95390694 63.76705243 268.42838385 64.29900376 269.90246582 64.83204651 C274.90919444 66.63434719 279.94573718 68.33590404 285 70 C285 70.66 285 71.32 285 72 C282.10538781 72.9829057 279.20941921 73.96143701 276.3125 74.9375 C275.49587891 75.21529297 274.67925781 75.49308594 273.83789062 75.77929688 C273.04189453 76.04677734 272.24589844 76.31425781 271.42578125 76.58984375 C270.69786377 76.83597412 269.96994629 77.08210449 269.2199707 77.33569336 C266.85386608 78.04372929 264.42180915 78.51563817 262 79 C262 94.51 262 110.02 262 126 C263.32 126.33 264.64 126.66 266 127 C269.88507557 130.70437438 271.81879386 133.63942064 272.2109375 139.046875 C271.85288423 142.36218301 270.02777445 144.45079783 268 147 C266.69992737 148.85762478 266.69992737 148.85762478 266 151 C266.40394012 153.18567987 266.40394012 153.18567987 267.44921875 155.38671875 C267.80177734 156.23419678 268.15433594 157.0816748 268.51757812 157.95483398 C268.90365234 158.85661377 269.28972656 159.75839355 269.6875 160.6875 C275.56632599 175.26020518 277 186.99645698 277 203 C264.79 203 252.58 203 240 203 C241.16610528 183.17621025 241.16610528 183.17621025 242.75 176.25 C243.00789307 175.07123291 243.00789307 175.07123291 243.27099609 173.86865234 C244.85892785 166.95373884 247.19035191 160.51761903 250 154 C250.67059747 152.33491104 251.33856781 150.66875093 252 149 C251.1028125 148.6596875 251.1028125 148.6596875 250.1875 148.3125 C247.26372999 146.55823799 246.36152537 145.13150836 245 142 C244.44796836 137.03171524 244.43564272 135.0158431 246.875 130.625 C249 128 249 128 251 126 C251.99 126 252.98 126 254 126 C254 111.81 254 97.62 254 83 C226.32028192 92.7632669 198.64371985 102.53527162 170.97851562 112.33959961 C170.04070251 112.671931 169.1028894 113.00426239 168.13665771 113.34666443 C166.31553727 113.99204343 164.49445067 114.63751797 162.67340088 115.28309631 C158.49888418 116.76253202 154.32346 118.23927586 150.14550781 119.70898438 C149.38126495 119.97797546 148.61702209 120.24696655 147.82962036 120.52410889 C146.43101331 121.01609371 145.03217362 121.50741804 143.63302612 121.99786377 C137.05290471 124.31268306 130.53992305 126.78965152 124.03125 129.296875 C121.8544964 130.11546069 119.6774058 130.93315072 117.5 131.75 C116.41074219 132.17410156 115.32148438 132.59820312 114.19921875 133.03515625 C103.71903879 136.92562209 97.4868248 135.4809154 87.25 131.5625 C85.31551657 130.84004059 83.38059778 130.11874618 81.4453125 129.3984375 C80.41438477 129.01268555 79.38345703 128.62693359 78.32128906 128.22949219 C72.27641066 125.99176743 66.19883257 123.84505729 60.125 121.6875 C47.18526463 117.08696005 47.18526463 117.08696005 41.10107422 114.78442383 C36.25205034 112.97406899 31.37210365 111.24703835 26.5 109.5 C22.3314248 108.0052328 18.16450594 106.5060679 14 105 C13.22398437 104.7215625 12.44796875 104.443125 11.6484375 104.15625 C7.56677157 102.66636434 3.92153011 100.96076505 0 99 C0 66.33 0 33.66 0 0 Z " fill="#FAFBFB" transform="translate(287,333)"/>
<path d="M0 0 C12.54 0 25.08 0 38 0 C49.31663192 15.84328469 49.31663192 15.84328469 53.25 21.625 C59.14788355 30.24522972 65.14199847 38.7970149 71.14013672 47.34765625 C74.38814712 51.97963117 77.63126749 56.61502883 80.875 61.25 C82.05987494 62.94272296 83.24476877 64.63543269 84.4296875 66.328125 C85.28645833 67.55208333 86.14322917 68.77604167 87 70 C90.78312724 66.52842441 93.538378 62.57451974 96.4375 58.375 C97.50819972 56.84050708 98.57984594 55.30667423 99.65234375 53.7734375 C100.20390137 52.98420898 100.75545898 52.19498047 101.32373047 51.38183594 C104.01250656 47.5613146 106.75599454 43.78095069 109.5 40 C114.32211491 33.3470402 119.08332341 26.65410063 123.81005859 19.93310547 C127.31653583 14.95232735 130.87300999 10.01273322 134.4765625 5.1015625 C135.68953559 3.42828168 136.85361137 1.71958295 138 0 C150.87 0 163.74 0 177 0 C177 54.78 177 109.56 177 166 C166.77 166 156.54 166 146 166 C145.67 126.07 145.34 86.14 145 45 C136.40584322 56.68683679 136.40584322 56.68683679 128 68.5 C122.9332359 75.71400504 117.76151143 82.8426974 112.52294922 89.93261719 C110.81213821 92.25501981 109.11089335 94.58427332 107.41015625 96.9140625 C106.16931859 98.60940996 104.92843371 100.30472285 103.6875 102 C103.11273926 102.78938965 102.53797852 103.5787793 101.94580078 104.39208984 C99.31113078 107.98315498 96.63958863 111.54183588 93.83203125 115 C93.38190674 115.556875 92.93178223 116.11375 92.46801758 116.6875 C90.6812093 118.28501893 89.3499093 118.6397413 87 119 C84.40259451 118.73535869 83.33496402 118.34548645 81.5078125 116.4609375 C80.51250992 114.95954886 79.57183813 113.42142605 78.66796875 111.86328125 C76.77749286 108.61803809 74.63994317 105.59848719 72.4375 102.5625 C71.56760669 101.34903119 70.69781888 100.13548675 69.828125 98.921875 C67.86710157 96.19746304 65.89668181 93.48005982 63.921875 90.765625 C57.7226651 82.23521747 51.6328202 73.65027821 45.75268555 64.89575195 C41.36861067 58.40853033 36.72018085 52.29357447 32 46 C31.67 85.6 31.34 125.2 31 166 C20.77 166 10.54 166 0 166 C0 111.22 0 56.44 0 0 Z " fill="#FAFBFB" transform="translate(289,606)"/>
<path d="M0 0 C0 25.74 0 51.48 0 78 C-9.405 79.485 -9.405 79.485 -19 81 C-43.11045642 86.24985745 -66.13910944 95.32208021 -87.75 107.1875 C-88.46454346 107.57921387 -89.17908691 107.97092773 -89.9152832 108.37451172 C-94.34811416 110.87781897 -98.36148503 113.68512545 -102.34472656 116.85668945 C-104 118 -104 118 -106 118 C-106.3403125 117.12859375 -106.680625 116.2571875 -107.03125 115.359375 C-118.00426118 88.39378369 -138.02140973 72.56515102 -164 61 C-166.86981245 59.84865858 -169.73832059 58.776377 -172.66796875 57.7890625 C-175 57 -175 57 -177.21875 56.03125 C-180.41288134 54.84690917 -183.47217917 54.2733797 -186.83203125 53.7109375 C-187.99710205 53.51290527 -189.16217285 53.31487305 -190.36254883 53.11083984 C-191.83103271 52.8680127 -193.2995166 52.62518555 -194.8125 52.375 C-199.494375 51.59125 -204.17625 50.8075 -209 50 C-209 33.83 -209 17.66 -209 1 C-206.03 1.99 -203.06 2.98 -200 4 C-198.39872064 4.46832099 -196.79511774 4.92892228 -195.1875 5.375 C-190.26848398 6.82401247 -185.64610381 8.79452694 -180.9375 10.8125 C-178.30665638 11.87603253 -175.72818324 12.73051242 -173 13.5 C-168.24495718 14.85103598 -163.80342207 16.70568912 -159.2578125 18.63671875 C-152.91145642 21.29244809 -146.4710294 23.66981302 -140 26 C-139.40616516 26.21432678 -138.81233032 26.42865356 -138.20050049 26.6494751 C-133.97470433 28.17249376 -129.74273558 29.67687707 -125.5045166 31.16497803 C-124.04838796 31.67815451 -122.59369451 32.19542242 -121.14050293 32.71685791 C-119.07291205 33.45729415 -117.00029353 34.18156451 -114.92578125 34.90234375 C-113.10687378 35.54417603 -113.10687378 35.54417603 -111.2512207 36.19897461 C-106.50027832 37.36949665 -103.18019137 36.16411401 -98.69921875 34.546875 C-97.492052 34.11616699 -97.492052 34.11616699 -96.26049805 33.67675781 C-94.98686401 33.2180127 -94.98686401 33.2180127 -93.6875 32.75 C-86.00401185 30.01428178 -78.29360583 27.47880301 -70.48046875 25.140625 C-67.52616762 24.17243653 -64.73865511 23.03595567 -61.89009094 21.80136108 C-58.84641771 20.51090398 -55.75377125 19.35241304 -52.65625 18.19921875 C-51.96946167 17.94267014 -51.28267334 17.68612152 -50.57507324 17.42179871 C-42.58535827 14.45239629 -34.54419843 11.63010603 -26.5 8.8125 C-24.26437635 8.02838146 -22.02893504 7.24375208 -19.79382324 6.45817566 C-18.42280515 5.97639915 -17.05149282 5.49545868 -15.67980957 5.01557922 C-12.31538429 3.83430495 -8.9749875 2.6101934 -5.64648438 1.33081055 C-2 0 -2 0 0 0 Z " fill="#FAFBFB" transform="translate(496,445)"/>
<path d="M0 0 C5.7910139 4.9637262 10.63204622 11.03276764 14.75 17.4375 C14.75 18.4275 14.75 19.4175 14.75 20.4375 C14.17032471 20.6641333 13.59064941 20.8907666 12.9934082 21.12426758 C10.34793732 22.16156716 7.70522038 23.20571395 5.0625 24.25 C4.15048828 24.60642578 3.23847656 24.96285156 2.29882812 25.33007812 C-2.13417433 27.0871591 -6.19520304 28.9022522 -10.25 31.4375 C-10.91 31.4375 -11.57 31.4375 -12.25 31.4375 C-13.0828286 30.25716019 -13.86559062 29.04136246 -14.625 27.8125 C-20.00234622 20.37910964 -29.41612009 16.91623142 -38.25 15.4375 C-41.85898372 15.14676855 -45.44300685 15.10325197 -49.0625 15.125 C-50.52453857 15.13345947 -50.52453857 15.13345947 -52.01611328 15.14208984 C-62.59139979 15.32085201 -71.49698421 16.68448421 -79.25 24.4375 C-82.62580449 29.18472506 -83.06963162 33.78895436 -82.25 39.4375 C-80.43429784 44.79382138 -78.1476333 46.85797554 -73.25 49.625 C-62.86647049 54.35276645 -51.36759745 55.63964 -40.1875 57.39453125 C0.33862339 63.7814355 0.33862339 63.7814355 13.75 80.4375 C21.12567943 91.50101914 23.81721982 106.41771101 21.375 119.43652344 C18.32195806 132.82538443 12.16390908 142.95504733 0.5859375 150.7265625 C-14.92407732 160.08384417 -32.25843623 162.68622352 -50.125 162.75 C-51.16979019 162.75392761 -51.16979019 162.75392761 -52.23568726 162.75793457 C-62.76797316 162.76218654 -72.27165844 162.08198243 -82.25 158.4375 C-83.66152344 157.96957031 -83.66152344 157.96957031 -85.1015625 157.4921875 C-100.34444436 152.01211819 -110.71731367 141.17491674 -118.44140625 127.296875 C-119.25 125.4375 -119.25 125.4375 -119.25 122.4375 C-115.12803094 120.43120826 -111.00194299 118.43353779 -106.875 116.4375 C-105.699375 115.86515625 -104.52375 115.2928125 -103.3125 114.703125 C-102.19101562 114.16171875 -101.06953125 113.6203125 -99.9140625 113.0625 C-98.35872803 112.30839844 -98.35872803 112.30839844 -96.77197266 111.5390625 C-94.25 110.4375 -94.25 110.4375 -92.25 110.4375 C-91.87875 111.448125 -91.5075 112.45875 -91.125 113.5 C-87.15327886 122.57821975 -79.80634425 127.77139166 -70.78125 131.44140625 C-55.6121739 136.67473751 -38.81791822 136.27183201 -24.25 129.4375 C-22.23808961 128.1222075 -20.23612172 126.7914196 -18.25 125.4375 C-17.26 125.1075 -16.27 124.7775 -15.25 124.4375 C-14.10790183 122.65521064 -14.10790183 122.65521064 -13.25 120.4375 C-12.90839844 119.67695312 -12.56679688 118.91640625 -12.21484375 118.1328125 C-10.41994395 113.11871994 -10.25008112 107.38320696 -11.97265625 102.30859375 C-15.2592386 96.14791509 -20.14103888 93.19327047 -26.5 90.8125 C-27.55703125 90.40773438 -28.6140625 90.00296875 -29.703125 89.5859375 C-36.82933818 87.27855129 -43.80678024 86.17982679 -51.25 85.5625 C-70.76360422 83.69333657 -90.76299403 78.98692314 -104.75390625 64.28515625 C-107.20376142 61.2596171 -108.79972625 58.03245823 -110.25 54.4375 C-110.77078125 53.25542969 -111.2915625 52.07335937 -111.828125 50.85546875 C-113.68502248 45.83498966 -113.78569157 40.99639232 -113.75 35.6875 C-113.74500488 34.71538574 -113.74000977 33.74327148 -113.73486328 32.74169922 C-113.54997945 25.11300969 -112.27825516 19.02235443 -108.25 12.4375 C-107.83878906 11.71949219 -107.42757813 11.00148438 -107.00390625 10.26171875 C-98.44140048 -2.82341617 -82.89521602 -8.94569564 -68.29760742 -12.37817383 C-45.9802814 -16.91782905 -18.69128484 -13.76489969 0 0 Z " fill="#FAFBFB" transform="translate(608.25,613.5625)"/>
<path d="M0 0 C0.68707031 0.26167969 1.37414062 0.52335938 2.08203125 0.79296875 C3.34466797 1.24736328 3.34466797 1.24736328 4.6328125 1.7109375 C5.70917969 2.12988281 6.78554688 2.54882812 7.89453125 2.98046875 C9.4702921 3.56277794 11.04721901 4.14193685 12.625 4.71875 C15.18471868 5.65499427 17.74230572 6.59523844 20.29370117 7.55395508 C21.48443237 8.00097778 21.48443237 8.00097778 22.69921875 8.45703125 C23.41062012 8.72596191 24.12202148 8.99489258 24.85498047 9.27197266 C26.83131656 9.95850933 28.86481392 10.47303942 30.89453125 10.98046875 C30.89453125 39.36046875 30.89453125 67.74046875 30.89453125 96.98046875 C37.49453125 96.98046875 44.09453125 96.98046875 50.89453125 96.98046875 C54.57109988 97.27565017 58.03319876 97.58795315 61.64453125 98.16796875 C62.50884766 98.29961426 63.37316406 98.43125977 64.26367188 98.56689453 C72.43670535 99.90443709 80.11831336 102.17332113 87.89453125 104.98046875 C88.98765625 105.36074219 90.08078125 105.74101562 91.20703125 106.1328125 C109.8905908 112.93307866 128.02413017 122.64087166 142.34375 136.53515625 C144.82125604 138.9923373 144.82125604 138.9923373 147.453125 140.98046875 C154.96498378 147.13418346 160.50125292 155.98593078 165.89453125 163.98046875 C162.00716759 163.98046875 160.88953062 162.70468409 157.83203125 160.35546875 C133.03463073 141.94283455 102.38205912 131.26711307 72.08276367 126.34545898 C70.46149154 126.07503593 68.84496957 125.77579123 67.23168945 125.46118164 C57.96038354 123.79156244 48.86870576 123.7077241 39.4831543 123.7746582 C36.83307249 123.79296156 34.1833418 123.79516674 31.53320312 123.79492188 C29.8085908 123.79983798 28.08398079 123.80566671 26.359375 123.8125 C25.58714096 123.81361282 24.81490692 123.81472565 24.01927185 123.81587219 C17.56373935 123.87020902 11.38605725 124.43950825 4.89453125 124.98046875 C4.89453125 109.47046875 4.89453125 93.96046875 4.89453125 77.98046875 C3.57453125 77.32046875 2.25453125 76.66046875 0.89453125 75.98046875 C-0.99316406 74.30395508 -0.99316406 74.30395508 -2.93359375 72.3125 C-3.65160156 71.58353516 -4.36960937 70.85457031 -5.109375 70.10351562 C-5.85058594 69.34103516 -6.59179688 68.57855469 -7.35546875 67.79296875 C-12.21124338 62.82075903 -17.08551771 57.98958395 -22.39111328 53.49487305 C-24.10546875 51.98046875 -24.10546875 51.98046875 -26.20703125 49.54296875 C-28.97464484 47.26509749 -30.97341903 47.71887064 -34.48046875 47.98046875 C-38.69718991 48.10324003 -40.77627461 48.13062748 -44.66796875 46.35546875 C-49.19408967 41.94540221 -51.34535717 38.87054321 -51.60546875 32.48046875 C-51.41195568 27.56256773 -50.47552786 24.71485858 -47.10546875 20.98046875 C-46.40421875 20.19671875 -45.70296875 19.41296875 -44.98046875 18.60546875 C-40.74328622 16.2105395 -36.86513036 16.54386821 -32.10546875 16.98046875 C-30.74228516 17.44453125 -30.74228516 17.44453125 -29.3515625 17.91796875 C-24.04695521 18.02010319 -21.02700629 14.59650821 -17.10546875 11.29296875 C-15.54436399 10.01652088 -13.98189281 8.74174206 -12.41796875 7.46875 C-11.67780518 6.86603271 -10.9376416 6.26331543 -10.17504883 5.64233398 C-3.11249259 -0.02887284 -3.11249259 -0.02887284 0 0 Z " fill="#87A2BC" transform="translate(597.10546875,163.01953125)"/>
<path d="M0 0 C10.56 0 21.12 0 32 0 C32 45.21 32 90.42 32 137 C59.72 137 87.44 137 116 137 C116 146.57 116 156.14 116 166 C77.72 166 39.44 166 0 166 C0 111.22 0 56.44 0 0 Z " fill="#F9FAFB" transform="translate(152,606)"/>
<path d="M0 0 C2.11962706 0.66669763 4.20288396 1.33841713 6.27148438 2.1484375 C7.29628906 2.54289062 7.29628906 2.54289062 8.34179688 2.9453125 C9.75325521 3.49739583 11.16471354 4.04947917 12.57617188 4.6015625 C13.60097656 4.99601562 13.60097656 4.99601562 14.64648438 5.3984375 C15.25878906 5.63820313 15.87109375 5.87796875 16.50195312 6.125 C18.76422496 6.8745751 21.12204508 7.30604964 23.45898438 7.7734375 C23.45898438 30.2134375 23.45898438 52.6534375 23.45898438 75.7734375 C30.71898437 75.7734375 37.97898437 75.7734375 45.45898438 75.7734375 C61.91105769 77.96704727 79.44762335 83.73539233 93.45898438 92.7734375 C94.255625 93.28132812 95.05226563 93.78921875 95.87304688 94.3125 C109.34780732 103.33845064 121.36862184 114.28451246 130.45898438 127.7734375 C130.12898437 128.4334375 129.79898438 129.0934375 129.45898438 129.7734375 C129.04390625 129.433125 128.62882813 129.0928125 128.20117188 128.7421875 C110.40715387 114.74521936 88.36625085 105.81580212 66.45898438 100.7734375 C65.55744629 100.56315918 64.6559082 100.35288086 63.72705078 100.13623047 C43.51347099 95.65181957 23.03140097 96.36321982 2.45898438 96.7734375 C2.50200684 95.75620605 2.5450293 94.73897461 2.58935547 93.69091797 C4.45340109 72.33172861 4.45340109 72.33172861 -3.21533203 53.58740234 C-5.64272075 51.49647092 -8.10765161 49.60762093 -10.81298828 47.89013672 C-13.20345364 46.34535167 -15.21462694 44.46165615 -17.29101562 42.5234375 C-17.88398438 42.02328125 -18.47695312 41.523125 -19.08789062 41.0078125 C-20.54101562 39.7734375 -20.54101562 39.7734375 -22.54101562 37.7734375 C-24.78226639 37.68273195 -24.78226639 37.68273195 -27.29101562 37.8984375 C-32.22030809 37.98379321 -34.81985244 37.22232045 -38.54101562 33.7734375 C-41.43933496 29.42595849 -42.3591259 25.95480256 -41.54101562 20.7734375 C-39.41727878 17.50664963 -37.06078255 14.53332096 -33.54101562 12.7734375 C-30.22169232 12.64818002 -27.29961859 12.55824813 -24.08984375 13.46875 C-21.50027562 14.02437937 -21.50027562 14.02437937 -19.30859375 12.5859375 C-18.20161133 11.68875 -18.20161133 11.68875 -17.07226562 10.7734375 C-16.25371094 10.1340625 -15.43515625 9.4946875 -14.59179688 8.8359375 C-13.32916016 7.815 -13.32916016 7.815 -12.04101562 6.7734375 C-10.37498185 5.4263229 -8.6982435 4.09231155 -7.00976562 2.7734375 C-6.27177734 2.1753125 -5.53378906 1.5771875 -4.7734375 0.9609375 C-2.54101562 -0.2265625 -2.54101562 -0.2265625 0 0 Z " fill="#F8FAFB" transform="translate(250.541015625,432.2265625)"/>
<path d="M0 0 C8.58 0 17.16 0 26 0 C26 26.4 26 52.8 26 80 C21.43073869 79.23845645 18.67631382 78.60598993 14.625 76.8125 C4.22451495 72.34777565 -6.38305066 68.42663516 -17.15625 64.95703125 C-20.03768292 63.98731825 -22.881029 62.93371198 -25.72460938 61.85864258 C-30.14020547 60.19237096 -34.569691 58.56415977 -39 56.9375 C-39.94617188 56.58623047 -40.89234375 56.23496094 -41.8671875 55.87304688 C-47.20242733 53.91851649 -52.45873992 52.26115943 -58 51 C-58 50.34 -58 49.68 -58 49 C-56.97390625 48.64550781 -55.9478125 48.29101562 -54.890625 47.92578125 C-46.14744528 44.89009119 -37.42556362 41.800651 -28.7265625 38.640625 C-27.91860229 38.34741867 -27.11064209 38.05421234 -26.27819824 37.75212097 C-22.17255416 36.26180269 -18.06830514 34.76779159 -13.96582031 33.26879883 C-12.43298811 32.71162639 -10.9001124 32.15457361 -9.3671875 31.59765625 C-8.29653549 31.20438141 -8.29653549 31.20438141 -7.20425415 30.80316162 C-2.22689603 29 -2.22689603 29 0 29 C0 19.43 0 9.86 0 0 Z " fill="#86A1BB" transform="translate(602,78)"/>
<path d="M0 0 C6.93 0 13.86 0 21 0 C21 20.46 21 40.92 21 62 C13.7193152 60.1798288 6.97046856 58.45873905 0.04296875 55.8203125 C-0.74792648 55.52567108 -1.53882172 55.23102966 -2.35368347 54.92745972 C-4.8422717 53.99935874 -7.32754597 53.06278271 -9.8125 52.125 C-13.08850731 50.89484426 -16.36613856 49.66909537 -19.64453125 48.4453125 C-20.43449493 48.1490094 -21.22445862 47.8527063 -22.0383606 47.54742432 C-28.39780902 45.17881016 -34.81778468 43.05882928 -41.2956543 41.03857422 C-44 40 -44 40 -45 38 C-43.83984375 37.62488281 -42.6796875 37.24976563 -41.484375 36.86328125 C-33.45658537 34.24248966 -25.58522687 31.51267099 -17.82421875 28.16796875 C-5.3277592 23 -5.3277592 23 0 23 C0 15.41 0 7.82 0 0 Z " fill="#F8FAFB" transform="translate(253,365)"/>
<path d="M0 0 C5.21381477 3.7032703 8.15428883 8.37209631 10.08984375 14.484375 C10.08984375 17.784375 10.08984375 21.084375 10.08984375 24.484375 C-3.44015625 24.484375 -16.97015625 24.484375 -30.91015625 24.484375 C-27.9986813 31.55136646 -27.9986813 31.55136646 -22.91015625 36.484375 C-20.11695074 37.42308286 -20.11695074 37.42308286 -16.91015625 37.484375 C-16.21664063 37.54625 -15.523125 37.608125 -14.80859375 37.671875 C-9.6006743 37.95822109 -6.15439775 37.05051364 -1.63671875 34.45703125 C0.08984375 33.484375 0.08984375 33.484375 3.08984375 32.484375 C4.40984375 33.804375 5.72984375 35.124375 7.08984375 36.484375 C-1.05467894 44.13378993 -6.97970144 46.15745586 -18.2421875 45.890625 C-25.37477693 45.10064704 -29.83693136 42.14301739 -34.34765625 36.671875 C-38.46530511 30.59235466 -39.79044398 23.75384784 -38.91015625 16.484375 C-37.33430547 9.14950592 -32.97359447 3.66368051 -27.1328125 -0.90625 C-18.71082192 -5.96300544 -8.22932107 -4.74819822 0 0 Z " fill="#EFF5F7" transform="translate(501.91015625,823.515625)"/>
<path d="M0 0 C4.33048786 1.96401308 7.04893223 4.24917959 9.7265625 8.265625 C10.2421875 7.523125 10.7578125 6.780625 11.2890625 6.015625 C14.96873589 1.86419861 18.08080766 -0.33640631 23.53125 -1.15625 C30.69974575 -1.48457805 36.100717 -0.31133405 41.7265625 4.265625 C46.30788132 9.35597925 46.87098275 14.39798971 46.82421875 20.99609375 C46.8228038 21.74651443 46.82138885 22.49693512 46.81993103 23.27009583 C46.8143381 25.6644796 46.80178694 28.05876953 46.7890625 30.453125 C46.78404658 32.07747261 46.77948384 33.70182168 46.77539062 35.32617188 C46.76437098 39.30602569 46.74711123 43.28580944 46.7265625 47.265625 C44.4165625 47.265625 42.1065625 47.265625 39.7265625 47.265625 C39.71197998 46.29214111 39.69739746 45.31865723 39.68237305 44.31567383 C39.62422954 40.69047024 39.54699873 37.0658774 39.46411133 33.44116211 C39.43093718 31.87485699 39.40288192 30.30843449 39.38012695 28.74194336 C39.34644134 26.48500737 39.29412201 24.22913974 39.23828125 21.97265625 C39.23189133 21.27662796 39.2255014 20.58059967 39.21891785 19.86347961 C39.08865897 15.51821441 38.35427201 12.74428509 35.7265625 9.265625 C31.49950224 6.36556287 26.65342145 6.62577319 21.7265625 7.265625 C17.29729527 9.71585794 15.67587363 12.68320054 13.7265625 17.265625 C13.22920761 20.7379795 13.22920761 20.7379795 13.21484375 24.4140625 C13.19689255 25.07145416 13.17894135 25.72884583 13.16044617 26.40615845 C13.10671813 28.48425072 13.07257125 30.56211847 13.0390625 32.640625 C13.00585597 34.05862476 12.97136326 35.47659501 12.93554688 36.89453125 C12.85101599 40.3513468 12.78402682 43.80824138 12.7265625 47.265625 C10.4165625 47.265625 8.1065625 47.265625 5.7265625 47.265625 C5.71197998 46.35796387 5.69739746 45.45030273 5.68237305 44.51513672 C5.62108101 41.1265319 5.54688674 37.73870811 5.46411133 34.35058594 C5.43099115 32.88812792 5.40291945 31.42554605 5.38012695 29.96289062 C5.34634075 27.85233097 5.2940187 25.74289314 5.23828125 23.6328125 C5.21209717 22.36550293 5.18591309 21.09819336 5.15893555 19.79248047 C4.60748673 15.29432707 3.03840746 12.05003659 0.37109375 8.421875 C-3.24905492 5.87659233 -8.09130681 6.62038198 -12.2734375 7.265625 C-16.19258536 9.20976922 -18.71477497 12.2038672 -20.2734375 16.265625 C-20.50374657 18.64912985 -20.62863404 21.04361771 -20.6875 23.4375 C-20.70686615 24.1199176 -20.7262323 24.80233521 -20.7461853 25.50543213 C-20.80574848 27.67537108 -20.85227196 29.84536377 -20.8984375 32.015625 C-20.93663881 33.49090797 -20.9756918 34.96616915 -21.015625 36.44140625 C-21.11142985 40.04927918 -21.19554666 43.65731583 -21.2734375 47.265625 C-23.5834375 47.265625 -25.8934375 47.265625 -28.2734375 47.265625 C-28.2734375 31.755625 -28.2734375 16.245625 -28.2734375 0.265625 C-25.9634375 0.265625 -23.6534375 0.265625 -21.2734375 0.265625 C-20.9434375 1.585625 -20.6134375 2.905625 -20.2734375 4.265625 C-19.81195312 3.9046875 -19.35046875 3.54375 -18.875 3.171875 C-12.76607645 -1.17439472 -7.24673292 -2.34086905 0 0 Z " fill="#F6FBFC" transform="translate(580.2734375,820.734375)"/>
<path d="M0 0 C0.7734375 -0.020625 1.546875 -0.04125 2.34375 -0.0625 C10.77580686 -0.11909099 17.18016148 2.32468145 23.25 8.25 C24.625 10.5625 24.625 10.5625 25.25 12.25 C22.9375 13.8125 22.9375 13.8125 20.25 15.25 C19.26 14.92 18.27 14.59 17.25 14.25 C17.25 13.59 17.25 12.93 17.25 12.25 C8.28971164 7.39651047 0.30876359 5.58297023 -9.625 8.4375 C-13.52312212 9.91395688 -15.73252628 11.4782013 -17.75 15.25 C-18.33084908 18.80770064 -18.29931044 20.44892228 -16.25 23.4375 C-9.72202259 28.17028362 -1.57610472 29.23427259 6.18359375 30.62304688 C14.80739376 32.29329663 21.12204501 34.94654895 26.25 42.25 C27.8770583 47.1311749 27.66143185 50.99405013 26.0625 55.875 C22.69323565 62.14880258 18.88584342 64.84736704 12.25 67.25 C11.1775 67.641875 10.105 68.03375 9 68.4375 C-1.64255648 70.74338724 -11.42094745 69.210249 -20.625 63.375 C-23.92112183 61.02979473 -26.54790633 58.69675531 -28.75 55.25 C-28.75 54.59 -28.75 53.93 -28.75 53.25 C-23 50.25 -23 50.25 -20.75 50.25 C-20.399375 50.971875 -20.04875 51.69375 -19.6875 52.4375 C-16.75097742 56.70019407 -13.68315511 58.68065209 -8.75 60.25 C-0.07990944 61.49013298 8.99531553 61.57997226 16.25 56.25 C18.30946859 52.78760482 18.82679387 50.28755711 18.25 46.25 C14.40635492 41.55221157 10.7028024 39.34310416 4.80078125 38.3203125 C3.52750977 38.08634766 3.52750977 38.08634766 2.22851562 37.84765625 C0.47144574 37.53614642 -1.28635991 37.22875447 -3.04492188 36.92578125 C-11.42386884 35.37248739 -19.22776236 33.11096191 -24.75 26.25 C-27.05584266 22.18732483 -27.69361513 17.82484837 -26.75 13.25 C-23.68549352 7.04212106 -19.18190569 3.5545492 -12.75 1.25 C-8.47827582 0.03660697 -4.4145422 0.02885322 0 0 Z " fill="#F3F8FA" transform="translate(178.75,800.75)"/>
<path d="M0 0 C2.05078125 0.03255208 4.1015625 0.06510417 6.15234375 0.09765625 C4.84120549 4.18485355 3.35175469 8.11502583 1.640625 12.05078125 C1.13684326 13.21206543 0.63306152 14.37334961 0.11401367 15.56982422 C-0.43559845 16.82915009 -0.9853247 18.08842616 -1.53515625 19.34765625 C-2.10387903 20.6550588 -2.67248013 21.96251429 -3.2409668 23.27001953 C-10.04743008 38.90657504 -16.94568283 54.50308272 -23.84765625 70.09765625 C-26.81765625 70.09765625 -29.78765625 70.09765625 -32.84765625 70.09765625 C-32.09910165 68.28455883 -31.34872179 66.47221497 -30.59765625 64.66015625 C-30.14648438 63.56703125 -29.6953125 62.47390625 -29.23046875 61.34765625 C-27.75504155 57.87998555 -26.14724755 54.49646498 -24.44921875 51.1328125 C-23.07551043 46.48539668 -25.65834214 41.78370251 -27.39453125 37.50390625 C-27.64761047 36.8759314 -27.9006897 36.24795654 -28.16143799 35.60095215 C-28.96942951 33.59817454 -29.78326801 31.5978402 -30.59765625 29.59765625 C-31.65664647 26.98375845 -32.71327105 24.36890824 -33.76953125 21.75390625 C-34.02754517 21.11630371 -34.28555908 20.47870117 -34.5513916 19.82177734 C-37.05911132 13.60917534 -39.46670167 7.35996585 -41.84765625 1.09765625 C-38.87765625 1.09765625 -35.90765625 1.09765625 -32.84765625 1.09765625 C-23.41042459 25.17046392 -23.41042459 25.17046392 -18.84765625 37.09765625 C-14.84129765 29.41075737 -11.42045395 21.53763535 -8.09765625 13.53515625 C-7.125886 11.19960922 -6.15204526 8.8649222 -5.17578125 6.53125 C-4.75200195 5.51087646 -4.32822266 4.49050293 -3.89160156 3.43920898 C-2.41519521 0.12765302 -2.41519521 0.12765302 0 0 Z " fill="#F4F9FA" transform="translate(280.84765625,819.90234375)"/>
<path d="M0 0 C-1.36983503 3.16115776 -1.9890638 3.9927092 -5 6 C-6.0725 5.34 -7.145 4.68 -8.25 4 C-13.68510573 1.28729126 -19.04748173 1.15452036 -25 2 C-28.31066045 3.42354734 -28.31066045 3.42354734 -30 6 C-30.41870553 8.66928121 -30.41870553 8.66928121 -30 11 C-23.73138876 14.7099944 -17.69959533 15.97903248 -10.5859375 17.09375 C-5.8734977 18.28469339 -2.5985392 20.45474544 0.875 23.8125 C2.56076004 27.09036675 2.43231441 29.35620711 2 33 C-0.06106985 38.06679672 -2.25244623 41.1302961 -7.328125 43.34375 C-15.88871286 45.44635053 -26.21281163 45.26091439 -34 41 C-35.8878067 39.43381963 -37.38609866 37.86607342 -39 36 C-38.34 34.35 -37.68 32.7 -37 31 C-32.18203529 31 -31.61132014 32.07655036 -28 35 C-23.38844105 37.04958176 -18.98287885 37.67362975 -14 37 C-10.20218809 35.46586587 -10.20218809 35.46586587 -7 33 C-6.74994614 30.04182893 -6.74994614 30.04182893 -7 27 C-10.92682286 23.07317714 -16.76784315 22.87480234 -22.0625 22.125 C-28.50065865 21.10294231 -32.70158595 19.01481639 -37 14 C-38.41966567 9.53697919 -38.42482103 5.97893541 -36.5625 1.6875 C-26.36279453 -9.00975208 -12.09919778 -6.04959889 0 0 Z " fill="#F3F8FA" transform="translate(359,825)"/>
<path d="M0 0 C0 17.49 0 34.98 0 53 C-2.31 51.02 -4.62 49.04 -7 47 C-7.969375 46.2575 -8.93875 45.515 -9.9375 44.75 C-10.618125 44.1725 -11.29875 43.595 -12 43 C-12 42.34 -12 41.68 -12 41 C-12.56074219 40.73703125 -13.12148438 40.4740625 -13.69921875 40.203125 C-18.27668987 37.80947287 -21.96322531 35.2361731 -25 31 C-26.49738859 25.77182966 -26.16969681 21.98007332 -24 17 C-20.05190179 12.59006292 -15.04140958 9.43241046 -10.05761719 6.31201172 C-7.99434493 4.99639412 -6.01715433 3.60000899 -4.0390625 2.16015625 C-1 0 -1 0 0 0 Z " fill="#6286A6" transform="translate(601,173)"/>
<path d="M0 0 C2.31 0 4.62 0 7 0 C7 4.62 7 9.24 7 14 C11.95 14 16.9 14 22 14 C22 15.98 22 17.96 22 20 C17.05 20 12.1 20 7 20 C7.07399223 24.50332001 7.15680107 29.00464882 7.26245117 33.50708008 C7.29569818 35.03855059 7.32373093 36.57014356 7.34643555 38.10180664 C7.37998718 40.30407887 7.4322991 42.50522912 7.48828125 44.70703125 C7.49467117 45.39150833 7.5010611 46.07598541 7.50764465 46.78120422 C7.59620263 49.6464861 7.69931626 51.57392474 9.37695312 53.95117188 C11.76322956 55.4932061 13.42070985 55.08275574 16.1875 54.6875 C17.08855469 54.56761719 17.98960937 54.44773437 18.91796875 54.32421875 C19.60503906 54.21722656 20.29210937 54.11023438 21 54 C21.99 55.98 22.98 57.96 24 60 C17.89550096 62.77577764 11.35907475 63.18967231 5 60.9375 C1.3007845 57.35388498 0.11472169 53.25716885 -0.34057617 48.26782227 C-0.32486572 46.96385498 -0.30915527 45.6598877 -0.29296875 44.31640625 C-0.28872391 43.61603745 -0.28447906 42.91566864 -0.28010559 42.19407654 C-0.26347156 39.98314 -0.2258518 37.77315543 -0.1875 35.5625 C-0.17243326 34.05274765 -0.15874836 32.54298084 -0.14648438 31.03320312 C-0.11361921 27.35516566 -0.06194582 23.67767593 0 20 C-3.3 20 -6.6 20 -10 20 C-10 18.02 -10 16.04 -10 14 C-6.7 14 -3.4 14 0 14 C0 9.38 0 4.76 0 0 Z " fill="#F3F9FB" transform="translate(405,807)"/>
<path d="M0 0 C0 14.19 0 28.38 0 43 C-4.3762301 39.24894563 -8.35394887 35.74098885 -12.2890625 31.63671875 C-13.91951425 30.07699436 -15.553703 28.97491025 -17.4375 27.75 C-20.12747391 24.86319874 -20.76119223 23.73441707 -21.375 19.9375 C-21.24601701 16.66400072 -20.7183659 14.76299475 -18.45166016 12.35546875 C-13.9445528 8.46457193 -9.01242322 5.19710222 -4 2 C-1 0 -1 0 0 0 Z " fill="#6285A2" transform="translate(253,439)"/>
<path d="M0 0 C4.44462725 2.10534975 7.36307344 4.84176965 10 9 C10 10.65 10 12.3 10 14 C-0.89 14 -11.78 14 -23 14 C-21.94057764 7.64346587 -20.89869329 5.09434384 -15.76171875 1.3828125 C-10.764149 -1.11950673 -5.45082897 -0.61785215 0 0 Z " fill="#6585A2" transform="translate(494,827)"/>
<path d="M0 0 C0.33 0 0.66 0 1 0 C1 39.93 1 79.86 1 121 C0.34 120.67 -0.32 120.34 -1 120 C-0.99861731 119.11512925 -0.99861731 119.11512925 -0.99720669 118.21238232 C-0.97513316 103.86593286 -0.9585795 89.51948492 -0.94818783 75.17302227 C-0.94302907 68.23521503 -0.93599435 61.29741911 -0.92456055 54.35961914 C-0.91353814 47.66826534 -0.90772078 40.97692576 -0.90512276 34.28556252 C-0.90327053 31.72861355 -0.89965377 29.17166526 -0.89426994 26.6147213 C-0.88704477 23.04220545 -0.88600969 19.46973874 -0.88647461 15.8972168 C-0.88287933 14.83266769 -0.87928406 13.76811859 -0.87557983 12.67131042 C-0.87764183 11.21368286 -0.87764183 11.21368286 -0.87974548 9.72660828 C-0.87882369 8.88132411 -0.8779019 8.03603994 -0.87695217 7.16514111 C-0.91560739 4.81669406 -0.91560739 4.81669406 -2 2 C-1.34 1.34 -0.68 0.68 0 0 Z " fill="#65829B" transform="translate(433,651)"/>
<path d="M0 0 C3.28788824 3.11016455 5.83735988 6.01618925 8 10 C5.36 10 2.72 10 0 10 C0 6.7 0 3.4 0 0 Z " fill="#6485A2" transform="translate(1,1158)"/>
<path d="M0 0 C3.96 0 7.92 0 12 0 C12 0.99 12 1.98 12 3 C8.04 3 4.08 3 0 3 C-0.33 3.66 -0.66 4.32 -1 5 C-1 2 -1 2 0 0 Z " fill="#708BA3" transform="translate(334,826)"/>
<path d="M0 0 C0.66 0 1.32 0 2 0 C-0.23130716 4.83449886 -3.0189869 9.41708821 -7 13 C-7.66 12.67 -8.32 12.34 -9 12 C-7.54927753 9.99406276 -6.09008971 7.99539826 -4.625 6 C-4.2125 5.42765625 -3.8 4.8553125 -3.375 4.265625 C-2.29828281 2.80684688 -1.15333422 1.39899024 0 0 Z " fill="#738BA2" transform="translate(410,683)"/>
<path d="M0 0 C2.9375 0.75 2.9375 0.75 6 2 C6.875 4.125 6.875 4.125 7 6 C3 6 3 6 1.25 4.6875 C0 3 0 3 0 0 Z " fill="#7693AC" transform="translate(233,461)"/>
<path d="M0 0 C1.43861294 0.08746284 2.87597508 0.19565348 4.3125 0.3125 C5.11300781 0.37050781 5.91351563 0.42851563 6.73828125 0.48828125 C9.36272334 1.08206694 10.30820672 1.95780294 12 4 C3.42857143 3.28571429 3.42857143 3.28571429 0 0 Z " fill="#7D94AB" transform="translate(165,826)"/>
<path d="M0 0 C0.99 0 1.98 0 3 0 C2.67 0.99 2.34 1.98 2 3 C-1.67566856 4.61729417 -6.07239675 4.06546005 -10 4 C-10 3.67 -10 3.34 -10 3 C-9.04287109 2.80083984 -9.04287109 2.80083984 -8.06640625 2.59765625 C-7.24011719 2.42105469 -6.41382813 2.24445312 -5.5625 2.0625 C-4.73878906 1.88847656 -3.91507812 1.71445312 -3.06640625 1.53515625 C-1.02338796 1.19247006 -1.02338796 1.19247006 0 0 Z " fill="#70899F" transform="translate(500,866)"/>
<path d="M0 0 C0.99 0.33 1.98 0.66 3 1 C3 1.66 3 2.32 3 3 C-3.625 6.125 -3.625 6.125 -7 5 C-5.90554162 4.13342884 -4.79902219 3.28207276 -3.6875 2.4375 C-3.07261719 1.96183594 -2.45773438 1.48617188 -1.82421875 0.99609375 C-1.22222656 0.66738281 -0.62023437 0.33867187 0 0 Z " fill="#6E8AA1" transform="translate(249,441)"/>
<path d="M0 0 C0.66 1.32 1.32 2.64 2 4 C6.455 3.505 6.455 3.505 11 3 C11 3.66 11 4.32 11 5 C7.37 5.33 3.74 5.66 0 6 C0 4.02 0 2.04 0 0 Z " fill="#7A91A8" transform="translate(370,720)"/>
<path d="M0 0 C0.78375 0.04125 1.5675 0.0825 2.375 0.125 C0.395 3.095 0.395 3.095 -1.625 6.125 C-2.615 4.805 -3.605 3.485 -4.625 2.125 C-2.625 0.125 -2.625 0.125 0 0 Z " fill="#6A859E" transform="translate(591.625,823.875)"/>
<path d="M0 0 C2.5 2.3125 2.5 2.3125 5 5 C5 5.99 5 6.98 5 8 C3.02 6.35 1.04 4.7 -1 3 C-0.67 2.01 -0.34 1.02 0 0 Z " fill="#DDECF6" transform="translate(375,554)"/>
<path d="M0 0 C1.13643966 3.40931897 0.86747764 4.00335456 -0.4375 7.1875 C-0.86869141 8.26064453 -0.86869141 8.26064453 -1.30859375 9.35546875 C-1.53675781 9.89816406 -1.76492188 10.44085937 -2 11 C-2.33 11 -2.66 11 -3 11 C-3.32613618 6.32538149 -2.70582788 3.83325617 0 0 Z " fill="#D7E5EF" transform="translate(324,825)"/>
<path d="M0 0 C0.99 0.33 1.98 0.66 3 1 C1.875 2.5 1.875 2.5 0 4 C-3.1875 4.1875 -3.1875 4.1875 -6 4 C-4.03617993 2.49440461 -2.21736634 1.10868317 0 0 Z " fill="#7992AA" transform="translate(424,543)"/>
<path d="M0 0 C4.455 0.99 4.455 0.99 9 2 C8.01 2.66 7.02 3.32 6 4 C2.8125 3.125 2.8125 3.125 0 2 C0 1.34 0 0.68 0 0 Z " fill="#7892AB" transform="translate(382,467)"/>
</svg>
